<?xml version="1.0" standalone="no"?>
<!DOCTYPE svg PUBLIC "-//W3C//DTD SVG 20010904//EN"
 "http://www.w3.org/TR/2001/REC-SVG-20010904/DTD/svg10.dtd">
<svg version="1.0" xmlns="http://www.w3.org/2000/svg"
 width="500.000000pt" height="500.000000pt" viewBox="0 0 500.000000 500.000000"
 preserveAspectRatio="xMidYMid meet">

<g transform="translate(0.000000,500.000000) scale(0.100000,-0.100000)"
fill="#000000" stroke="none">
<path d="M2363 3780 c-293 -33 -559 -163 -768 -374 -106 -106 -169 -194 -235
-322 -43 -83 -75 -172 -67 -181 3 -2 52 20 110 51 57 31 109 56 114 56 5 0 32
-43 59 -95 27 -52 52 -95 55 -95 4 0 17 25 30 56 37 92 116 203 203 289 409
398 1078 328 1394 -144 32 -47 68 -112 81 -143 13 -32 26 -58 30 -58 3 0 28
43 55 95 27 52 54 95 59 95 5 0 57 -25 114 -56 58 -31 107 -53 110 -51 8 9
-24 98 -67 181 -66 128 -129 216 -235 322 -185 187 -407 307 -665 358 -95 19
-283 27 -377 16z m437 -45 c312 -81 572 -262 745 -520 50 -75 125 -221 140
-273 7 -23 6 -23 -17 -9 -12 8 -62 35 -110 60 l-87 47 -47 -90 c-25 -50 -49
-90 -53 -90 -4 0 -18 23 -32 52 -85 183 -244 342 -434 434 -146 71 -223 88
-405 88 -182 0 -259 -17 -405 -88 -190 -92 -349 -251 -434 -434 -14 -29 -28
-52 -32 -52 -4 0 -28 40 -53 90 l-47 90 -87 -47 c-48 -25 -98 -52 -110 -60
-23 -14 -24 -14 -17 9 15 52 90 198 140 273 168 250 428 436 722 514 129 34
187 40 358 36 134 -3 177 -8 265 -30z"/>
<path d="M2548 3674 c-31 -17 -58 -61 -58 -97 0 -67 86 -126 145 -99 35 16 32
33 -5 19 -43 -16 -81 0 -103 45 -16 33 -16 40 -4 71 21 48 66 66 113 44 28
-14 34 -14 34 -3 0 14 -49 36 -79 36 -9 -1 -28 -7 -43 -16z"/>
<path d="M2244 3633 c3 -16 11 -57 17 -93 6 -36 15 -69 19 -73 11 -12 90 4 90
18 0 10 -9 11 -35 5 -19 -4 -37 -5 -39 -1 -2 3 -9 35 -16 71 -15 85 -19 100
-31 100 -6 0 -8 -12 -5 -27z"/>
<path d="M2152 3560 c2 -44 1 -80 -2 -80 -3 1 -25 26 -50 57 l-45 57 -5 -77
-5 -77 -48 60 c-27 33 -53 57 -58 54 -10 -6 2 -23 78 -109 l52 -58 3 78 3 78
45 -57 c25 -31 47 -56 50 -56 3 0 4 47 2 105 -2 64 -7 105 -14 105 -6 0 -9
-29 -6 -80z"/>
<path d="M2747 3558 c-37 -46 -62 -85 -56 -87 6 -2 21 8 33 23 20 24 23 25 58
14 31 -9 39 -17 44 -45 6 -32 24 -56 24 -32 0 35 -23 195 -29 202 -4 4 -37
-30 -74 -75z m72 -22 c1 -15 -4 -17 -26 -11 -38 9 -38 9 -11 45 23 31 23 31
29 8 4 -13 7 -31 8 -42z"/>
<path d="M2925 3523 c-41 -88 -51 -123 -37 -123 5 0 17 20 26 45 19 48 27 52
66 30 30 -17 40 -18 40 -5 0 5 -16 16 -35 24 -39 17 -39 15 -25 50 9 25 10 25
44 11 41 -17 46 -18 46 -7 0 4 -20 18 -45 30 l-45 22 -35 -77z"/>
<path d="M3180 3524 c-14 -7 -18 -13 -10 -13 24 1 54 15 44 21 -5 4 -20 0 -34
-8z"/>
<path d="M3066 3437 c-63 -102 -63 -98 -11 -129 34 -21 45 -24 45 -13 0 8 -3
15 -7 15 -5 0 -19 9 -32 19 -24 18 -24 18 -5 50 10 17 21 31 24 31 3 0 19 -9
37 -20 18 -10 35 -15 38 -10 3 4 -11 18 -30 30 -29 18 -33 25 -25 40 16 30 26
32 64 9 20 -11 36 -16 36 -10 0 10 -68 61 -81 61 -4 0 -28 -33 -53 -73z"/>
<path d="M1764 3426 c-38 -38 -44 -77 -19 -126 19 -37 43 -50 92 -50 47 0 81
22 99 66 30 71 -20 144 -98 144 -32 0 -47 -7 -74 -34z m131 -11 c36 -35 35
-96 -1 -124 -40 -31 -87 -28 -118 10 -14 17 -26 41 -26 54 0 13 12 37 26 54
33 40 83 43 119 6z"/>
<path d="M1957 3212 c-21 -23 -22 -54 -3 -90 18 -35 108 -120 166 -157 94 -61
258 -195 238 -195 -3 0 -20 8 -39 17 -19 9 -59 18 -89 19 -30 1 -63 5 -73 9
-24 10 -67 -10 -112 -51 -27 -25 -35 -38 -28 -45 8 -8 6 -23 -8 -53 -38 -83
-19 -188 44 -254 53 -55 102 -76 182 -75 39 0 73 -4 76 -10 9 -13 63 21 106
65 22 23 30 37 24 47 -5 8 -3 28 6 50 11 26 14 56 10 109 -5 69 -4 73 19 88
22 15 26 15 48 0 23 -15 24 -19 19 -88 -4 -53 -1 -83 10 -109 9 -22 11 -42 6
-50 -6 -10 2 -24 24 -47 43 -44 97 -78 106 -65 3 6 38 10 76 10 80 -1 129 20
182 75 63 66 82 171 44 254 -14 30 -16 45 -8 53 7 7 -1 20 -28 45 -45 41 -88
61 -112 51 -10 -4 -43 -8 -73 -9 -30 -1 -70 -10 -89 -19 -19 -9 -36 -17 -39
-17 -20 0 144 134 238 195 58 37 148 122 166 157 47 92 -32 138 -142 83 -27
-14 -96 -66 -154 -116 -58 -50 -138 -111 -177 -136 l-73 -45 -72 45 c-40 25
-120 86 -178 136 -58 50 -127 102 -154 116 -60 30 -116 33 -139 7z m129 -22
c32 -16 97 -63 144 -105 78 -69 211 -167 241 -177 9 -3 7 -11 -5 -31 -10 -14
-15 -30 -12 -36 3 -5 -11 -23 -31 -39 l-38 -30 -64 59 c-35 32 -110 90 -166
129 -159 108 -229 197 -189 241 24 26 51 24 120 -11z m948 11 c40 -44 -30
-133 -191 -243 -57 -39 -140 -104 -183 -144 -85 -81 -111 -90 -134 -46 -8 15
-23 36 -35 46 -32 29 -26 53 22 82 112 71 179 120 257 189 85 76 184 135 225
135 12 0 30 -8 39 -19z m-822 -412 c54 2 138 -22 138 -40 0 -12 -1 -12 -46 7
-26 11 -57 15 -95 12 -164 -12 -244 -202 -136 -325 135 -153 380 -38 351 165
-5 39 -4 45 7 34 19 -18 17 -119 -3 -158 -11 -19 -13 -35 -8 -44 6 -10 1 -23
-18 -43 -33 -35 -79 -60 -87 -48 -3 5 -29 7 -58 4 -101 -10 -185 34 -229 121
-29 56 -29 138 -1 192 13 26 18 45 12 51 -11 11 32 54 76 77 21 11 31 12 36 4
5 -7 29 -11 61 -9z m288 -9 c25 -35 23 -40 -43 -88 l-45 -32 -27 36 -27 35 24
18 c13 10 34 28 48 39 34 29 45 27 70 -8z m430 -17 c27 -24 38 -39 31 -46 -6
-6 -2 -24 12 -51 29 -55 29 -136 0 -192 -46 -87 -129 -131 -230 -121 -29 3
-55 1 -58 -4 -8 -12 -54 13 -87 48 -19 20 -24 33 -18 43 5 9 3 25 -8 44 -20
39 -22 140 -3 158 11 11 12 5 7 -34 -23 -159 136 -284 279 -219 145 65 163
258 32 348 -49 34 -134 43 -191 19 -45 -19 -46 -19 -46 -7 0 18 84 42 139 40
33 -2 56 2 58 8 6 17 38 4 83 -34z m-657 -14 c21 -5 54 -24 74 -42 129 -114
50 -320 -123 -320 -163 0 -246 200 -130 312 31 30 92 60 126 61 8 0 32 -5 53
-11z m550 0 c50 -14 113 -71 128 -116 39 -120 -50 -246 -175 -246 -58 0 -98
18 -138 60 -90 95 -49 253 78 298 48 17 59 18 107 4z m-188 -9 c3 -5 -6 -26
-21 -45 l-27 -35 -30 23 c-43 33 -47 51 -10 43 18 -4 35 -1 48 8 24 18 32 19
40 6z"/>
<path d="M2182 2643 c-21 -8 -44 -63 -38 -89 21 -83 141 -83 162 0 7 28 -18
81 -41 90 -19 7 -64 7 -83 -1z m76 -35 c21 -21 15 -67 -12 -79 -34 -16 -66 3
-66 39 0 33 16 52 45 52 12 0 26 -5 33 -12z"/>
<path d="M2732 2643 c-21 -8 -44 -63 -38 -89 21 -83 141 -83 162 0 7 28 -18
81 -41 90 -19 7 -64 7 -83 -1z m76 -35 c21 -21 15 -67 -12 -79 -34 -16 -66 3
-66 39 0 33 16 52 45 52 12 0 26 -5 33 -12z"/>
<path d="M1375 2894 c-66 -36 -125 -72 -131 -80 -42 -54 -51 -392 -15 -561
108 -514 499 -906 1014 -1014 144 -31 370 -31 514 0 316 66 585 236 776 490
174 231 258 478 261 766 1 141 -17 292 -38 319 -11 15 -256 150 -261 144 -2
-2 -31 -54 -64 -117 l-62 -114 12 -56 c7 -31 12 -105 12 -166 -2 -340 -194
-647 -498 -796 -134 -65 -247 -91 -395 -91 -494 0 -890 394 -893 887 0 61 5
136 12 167 l12 56 -63 116 c-34 64 -65 116 -68 115 -3 0 -59 -29 -125 -65z
m185 -66 l52 -98 -13 -90 c-63 -466 225 -893 687 -1016 97 -26 331 -26 428 0
333 89 579 332 668 661 26 96 34 244 19 355 l-13 90 52 98 c29 53 55 100 58
104 4 4 62 -22 128 -57 l122 -65 13 -67 c19 -91 18 -376 0 -468 -92 -463 -423
-840 -866 -983 -144 -47 -215 -57 -395 -57 -180 0 -251 10 -395 57 -389 126
-697 434 -823 823 -16 50 -36 122 -43 160 -18 92 -19 377 0 468 l13 67 122 65
c66 35 124 61 128 57 3 -4 29 -51 58 -104z"/>
<path d="M1290 2630 c0 -35 3 -40 23 -39 16 1 18 2 5 6 -10 2 -18 11 -18 18 0
7 8 16 18 18 16 4 16 5 0 6 -10 0 -18 5 -18 10 0 5 8 12 18 14 13 4 11 5 -5 6
-20 1 -23 -4 -23 -39z"/>
<path d="M1344 2659 c-4 -7 3 -19 16 -29 15 -11 20 -22 15 -31 -7 -12 -6 -12
6 -1 12 11 11 16 -8 32 -28 22 -28 27 -5 33 15 4 15 5 0 6 -9 0 -20 -4 -24
-10z"/>
<path d="M1400 2666 c0 -9 30 -14 35 -6 4 6 -3 10 -14 10 -12 0 -21 -2 -21 -4z"/>
<path d="M1460 2629 c0 -38 1 -40 28 -37 47 5 39 78 -9 78 -16 0 -19 -8 -19
-41z m45 1 c0 -16 -6 -26 -17 -28 -14 -3 -18 3 -18 28 0 25 4 31 18 28 11 -2
17 -12 17 -28z"/>
<path d="M3475 2660 c-3 -5 0 -7 8 -4 25 9 28 -12 6 -40 -11 -14 -17 -26 -12
-26 5 0 16 13 25 28 13 22 14 32 6 40 -15 15 -25 15 -33 2z"/>
<path d="M3542 2658 c-14 -14 -16 -54 -3 -62 4 -3 6 6 3 19 -2 14 1 32 8 40
15 18 9 20 -8 3z"/>
<path d="M3620 2627 c4 -41 5 -41 8 -8 2 18 0 37 -5 42 -5 5 -6 -11 -3 -34z"/>
<path d="M3569 2628 c-3 -22 -1 -34 4 -29 5 5 7 21 5 37 -3 27 -4 26 -9 -8z"/>
<path d="M3682 2628 c-16 -44 -9 -45 11 -3 9 19 13 35 9 35 -4 0 -13 -14 -20
-32z"/>
<path d="M1350 2434 c-18 -37 -22 -57 -17 -100 7 -69 49 -146 96 -177 25 -17
41 -38 50 -63 7 -22 15 -46 18 -54 5 -13 4 -13 -10 -1 -10 7 -17 19 -17 27 0
18 -15 25 -35 18 -25 -10 -15 -48 15 -52 37 -5 61 -32 121 -134 36 -60 88
-127 152 -194 54 -57 96 -108 92 -114 -3 -5 -2 -10 3 -10 13 0 45 50 37 58 -3
4 -10 1 -14 -6 -6 -10 -14 -7 -34 8 -29 23 -37 76 -16 97 17 17 3 43 -21 43
-24 0 -38 -26 -21 -43 6 -6 11 -20 11 -31 -1 -50 -190 192 -190 242 0 13 10
32 23 42 21 18 21 20 5 36 -26 26 -51 11 -43 -26 13 -59 -13 -29 -45 52 -32
82 -32 83 -16 128 24 67 21 137 -10 198 -26 52 -74 102 -99 102 -7 0 -23 -21
-35 -46z m96 -21 c44 -58 61 -136 44 -198 -7 -26 -19 -49 -27 -52 -21 -8 -80
54 -99 103 -19 50 -16 153 6 179 20 24 40 15 76 -32z"/>
<path d="M3563 2448 c-68 -70 -93 -189 -57 -273 14 -35 14 -41 -6 -94 -12 -31
-30 -72 -41 -91 l-20 -35 4 29 c6 39 -1 56 -24 56 -29 0 -34 -28 -10 -54 11
-12 21 -30 21 -40 0 -35 -165 -256 -191 -256 -5 0 -3 15 4 33 17 39 12 57 -14
57 -24 0 -36 -27 -20 -43 6 -6 11 -26 11 -43 0 -25 -7 -38 -29 -53 -21 -15
-31 -18 -34 -9 -2 7 -7 10 -11 6 -4 -3 0 -18 9 -32 18 -28 38 -36 29 -11 -4 9
18 37 60 76 75 70 139 151 198 253 47 79 72 105 106 106 29 0 40 27 19 47 -18
18 -35 10 -48 -24 -16 -43 -20 -19 -4 26 9 26 35 62 69 94 44 42 58 63 71 110
20 69 14 133 -16 171 -27 34 -39 33 -76 -6z m72 -18 c18 -35 19 -98 3 -151
-13 -45 -72 -119 -94 -119 -25 0 -47 68 -41 126 6 57 23 96 63 143 32 39 49
39 69 1z"/>
<path d="M1893 1573 c1 -18 6 -28 10 -24 4 4 3 18 -2 32 -9 23 -9 22 -8 -8z"/>
<path d="M3036 1535 c4 -8 11 -15 16 -15 6 0 5 6 -2 15 -7 8 -14 15 -16 15 -2
0 -1 -7 2 -15z"/>
<path d="M2945 1520 c-3 -6 1 -7 9 -4 18 7 21 14 7 14 -6 0 -13 -4 -16 -10z"/>
<path d="M1996 1503 c-4 -9 -3 -20 1 -24 4 -4 9 3 9 17 2 28 -1 31 -10 7z"/>
<path d="M2970 1470 c-9 -6 -10 -10 -3 -10 6 0 15 5 18 10 8 12 4 12 -15 0z"/>
<path d="M2203 1448 c-15 -20 -25 -38 -20 -38 3 0 12 11 21 25 17 26 16 35 -1
13z"/>
<path d="M2485 2437 c-4 -9 -4 -39 1 -65 4 -26 6 -56 5 -67 -2 -15 0 -17 9 -9
19 19 23 86 7 124 -12 29 -16 32 -22 17z"/>
<path d="M2518 2298 c-24 -58 -23 -71 3 -29 11 18 19 42 17 52 -2 14 -8 6 -20
-23z"/>
<path d="M2156 2153 c19 -166 96 -306 203 -375 l45 -28 -82 0 c-48 0 -82 -4
-82 -10 0 -6 97 -10 270 -10 173 0 270 4 270 10 0 6 -34 10 -82 10 l-83 0 35
21 c19 12 50 35 68 52 29 28 40 32 90 32 100 1 178 59 189 143 9 68 -29 116
-102 132 -27 5 -30 10 -27 38 l3 32 -360 0 -361 0 6 -47z m694 10 c0 -48 -29
-152 -57 -210 -109 -223 -346 -273 -494 -105 -70 79 -128 222 -129 315 l0 27
340 0 340 0 0 -27z m63 -52 c97 -37 87 -170 -17 -220 -40 -20 -131 -30 -124
-13 2 4 17 36 34 72 18 36 37 89 44 118 12 54 20 59 63 43z"/>
</g>
</svg>
